<svg width="24" height="24" viewBox="0 0 24 24" fill="none" xmlns="http://www.w3.org/2000/svg">
<path d="M9.26051 6.15128C9.94446 4.50778 10.2864 3.68604 10.8745 3.68604C11.4626 3.68604 11.8046 4.50778 12.4885 6.15128L12.5204 6.22781C12.9068 7.1563 13.1 7.62055 13.4937 7.90272C13.8875 8.1849 14.4044 8.22952 15.4381 8.31876L15.625 8.33489C17.3169 8.48094 18.1629 8.55396 18.3439 9.07273C18.5249 9.59149 17.8967 10.1424 16.6402 11.2442L16.2208 11.612C15.5848 12.1697 15.2668 12.4486 15.1185 12.8141C15.0909 12.8823 15.0679 12.9522 15.0497 13.0232C14.9523 13.4043 15.0454 13.8089 15.2317 14.618L15.2897 14.8699C15.632 16.3569 15.8031 17.1005 15.5043 17.4212C15.3926 17.541 15.2475 17.6273 15.0863 17.6697C14.6548 17.7832 14.0423 17.3021 12.8172 16.3399C12.0127 15.708 11.6105 15.3921 11.1487 15.3211C10.9671 15.2931 10.782 15.2931 10.6003 15.3211C10.1385 15.3921 9.7363 15.708 8.93186 16.3399C7.70676 17.3021 7.09422 17.7832 6.66277 17.6697C6.50154 17.6273 6.35641 17.541 6.24475 17.4212C5.94592 17.1005 6.11707 16.3569 6.45937 14.8699L6.51735 14.618C6.7036 13.8089 6.79673 13.4043 6.6993 13.0232C6.68112 12.9522 6.65814 12.8823 6.63049 12.8141C6.48226 12.4486 6.16423 12.1697 5.52818 11.612L5.10884 11.2442C3.85236 10.1424 3.22412 9.59149 3.40514 9.07273C3.58615 8.55396 4.4321 8.48094 6.124 8.33489L6.31089 8.31876C7.34466 8.22952 7.86154 8.1849 8.2553 7.90272C8.64905 7.62055 8.84225 7.1563 9.22866 6.22781L9.26051 6.15128Z" stroke="white" stroke-width="2"/>
</svg>
