<svg width="20" height="20" viewBox="0 0 20 20" fill="none" xmlns="http://www.w3.org/2000/svg">
<path d="M3.33325 7.5C3.33325 5.14298 3.33325 3.96447 4.06548 3.23223C4.79772 2.5 5.97623 2.5 8.33325 2.5H11.6666C14.0236 2.5 15.2021 2.5 15.9344 3.23223C16.6666 3.96447 16.6666 5.14298 16.6666 7.5V13.1897C16.6666 15.4257 16.6666 16.5438 15.963 16.8857C15.2594 17.2277 14.3803 16.537 12.622 15.1555L12.0593 14.7133C11.0707 13.9365 10.5764 13.5482 9.99992 13.5482C9.42348 13.5482 8.92916 13.9365 7.94051 14.7133L7.3778 15.1555C5.61954 16.537 4.74041 17.2277 4.03683 16.8857C3.33325 16.5438 3.33325 15.4257 3.33325 13.1897V7.5Z" stroke="white"/>
</svg>
