<svg width="24" height="24" viewBox="0 0 24 24" fill="none" xmlns="http://www.w3.org/2000/svg">
<path fill-rule="evenodd" clip-rule="evenodd" d="M18.2101 5.19087C17.7864 5.26625 17.2073 5.45789 16.3633 5.73923L9.87231 7.90289C9.05025 8.17692 8.45209 8.37646 8.01762 8.54598C7.56617 8.72212 7.36809 8.8387 7.28513 8.91842C6.67091 9.50865 6.67091 10.4913 7.28513 11.0815C7.36809 11.1613 7.56617 11.2778 8.01762 11.454C8.45209 11.6235 9.05024 11.823 9.87231 12.0971C9.88537 12.1014 9.89826 12.1057 9.91098 12.11C10.2029 12.2072 10.4045 12.2743 10.5875 12.3711C11.0313 12.6058 11.3941 12.9686 11.6287 13.4124C11.7255 13.5954 11.7927 13.7969 11.8899 14.0889C11.8942 14.1016 11.8985 14.1145 11.9028 14.1276C12.1768 14.9496 12.3764 15.5478 12.5459 15.9823C12.722 16.4337 12.8386 16.6318 12.9183 16.7148C13.5086 17.329 14.4912 17.329 15.0815 16.7148C15.1612 16.6318 15.2778 16.4337 15.4539 15.9823C15.6234 15.5478 15.823 14.9496 16.097 14.1276L18.2607 7.6366C18.542 6.79257 18.7336 6.21349 18.809 5.78975C18.885 5.36239 18.8101 5.2653 18.7723 5.22757C18.7346 5.18983 18.6375 5.11485 18.2101 5.19087ZM18.035 4.20633C18.5448 4.11564 19.0801 4.12118 19.4794 4.52046C19.8787 4.91974 19.8842 5.45511 19.7936 5.96489C19.7038 6.46966 19.4874 7.11879 19.223 7.91194L19.2093 7.95283L17.0457 14.4438L17.0407 14.4586C16.7727 15.2629 16.5653 15.885 16.3855 16.3458C16.2113 16.7924 16.0354 17.1653 15.8025 17.4076C14.8188 18.4314 13.181 18.4314 12.1973 17.4076C11.9644 17.1653 11.7886 16.7924 11.6143 16.3457C11.4345 15.885 11.2272 15.2629 10.9591 14.4587L10.9541 14.4438C10.8391 14.0987 10.7981 13.9807 10.7448 13.8799C10.604 13.6136 10.3863 13.3959 10.12 13.2551C10.0191 13.2018 9.90123 13.1608 9.55608 13.0458L9.54119 13.0408C8.737 12.7727 8.11489 12.5654 7.65414 12.3856C7.20753 12.2113 6.83459 12.0355 6.59224 11.8026C5.56854 10.8189 5.56854 9.1811 6.59224 8.19737C6.83459 7.96448 7.20753 7.78863 7.65414 7.61438C8.1149 7.4346 8.73703 7.22723 9.54124 6.95916L9.55608 6.95421L16.0471 4.79055L16.0879 4.77693C16.8811 4.51252 17.5302 4.29612 18.035 4.20633Z" fill="white"/>
</svg>
