<svg width="90" height="90" viewBox="0 0 90 90" fill="none" xmlns="http://www.w3.org/2000/svg">
<rect width="90" height="90" fill="url(#paint0_linear_262_351)"/>
<mask id="mask0_262_351" style="mask-type:alpha" maskUnits="userSpaceOnUse" x="0" y="0" width="90" height="90">
<rect width="90" height="90" fill="#D9D9D9"/>
</mask>
<g mask="url(#mask0_262_351)">
<path d="M16.9167 13.3412C19.7723 10.2652 24.4904 9.98746 27.7105 12.7059L114.199 85.7193C118.122 89.031 123.793 84.99 122.077 80.106V80.106C121.627 78.8258 120.696 77.7779 119.491 77.1945L17.7311 27.9292C12.8487 25.5654 11.6268 19.0396 15.3215 15.0596L16.9167 13.3412Z" fill="url(#paint1_linear_262_351)"/>
<path d="M-19.4275 62.7229C-21.2437 58.9131 -19.8401 54.2977 -16.2167 52.1655L80.983 -5.03496C85.3977 -7.63295 83.6908 -14.4776 78.6109 -14.5466V-14.5466C77.2769 -14.5647 75.9868 -14.0395 75.027 -13.0874L-5.76788 67.053C-9.6484 70.9021 -16.0577 69.7916 -18.4072 64.8632L-19.4275 62.7229Z" fill="url(#paint2_linear_262_351)"/>
<path d="M-14.1805 73.3017C-13.4166 69.1553 -9.56441 66.3219 -5.37656 66.8261L105.907 80.2234C111.014 80.8383 113.682 74.3465 109.625 71.1751V71.1751C108.545 70.3305 107.171 69.9571 105.814 70.1396L-5.67724 85.1275C-11.0744 85.8531 -15.6146 81.086 -14.6278 75.7297L-14.1805 73.3017Z" fill="url(#paint3_linear_262_351)"/>
<path d="M27.8423 67.9248C27.7039 66.071 27.6348 64.0373 27.6348 61.8237C27.6348 59.5825 27.6348 57.12 27.6348 54.436C27.6348 52.4162 27.6348 50.258 27.6348 47.9614C27.6348 45.6372 27.6348 43.2992 27.6348 40.9473C27.6348 38.5677 27.6348 36.202 27.6348 33.8501C27.6624 31.4982 27.6763 29.257 27.6763 27.1265C27.7039 24.9959 27.7178 23.0314 27.7178 21.2329C27.7178 19.4067 27.7316 17.8296 27.7593 16.5015C27.7869 16.0311 27.87 15.5469 28.0083 15.0488C28.1466 14.5508 28.368 14.1081 28.6724 13.7207C28.9767 13.3057 29.3641 12.9736 29.8345 12.7246C30.3049 12.4479 30.8859 12.3096 31.5776 12.3096C31.9927 12.3096 32.4077 12.3787 32.8228 12.5171C33.2655 12.6554 33.6528 12.863 33.9849 13.1396C34.3169 13.4163 34.5798 13.776 34.7734 14.2188C34.9948 14.6615 35.1055 15.1872 35.1055 15.7959L34.8149 32.356C34.8149 32.6326 34.8149 33.02 34.8149 33.5181C34.8426 34.0161 34.8703 34.5557 34.8979 35.1367C34.9256 35.7178 34.9533 36.285 34.981 36.8384C35.0363 37.3918 35.0916 37.8621 35.147 38.2495L41.9121 30.6958C42.4102 29.3953 43.0465 28.4131 43.8213 27.749C44.596 27.085 45.5229 26.6423 46.6021 26.4209C47.0448 25.8675 47.6673 25.1066 48.4697 24.1382C49.2998 23.1698 50.1299 22.2013 50.96 21.2329C51.4027 20.7625 51.8315 20.2922 52.2466 19.8218C52.6616 19.3514 53.049 18.9225 53.4087 18.5352C53.7684 18.1201 54.0728 17.7466 54.3218 17.4146C54.5985 17.0825 54.806 16.8335 54.9443 16.6675C55.3594 16.1141 55.7191 15.6299 56.0234 15.2148C56.3278 14.7998 56.6737 14.4539 57.061 14.1772C57.4484 13.9006 57.9188 13.693 58.4722 13.5547C59.0256 13.4163 59.7588 13.3472 60.6719 13.3472C60.9209 13.3472 61.2114 13.4025 61.5435 13.5132C61.9032 13.6239 62.2214 13.8037 62.498 14.0527C62.8024 14.3018 63.0514 14.6338 63.2451 15.0488C63.4665 15.4639 63.5771 15.9757 63.5771 16.5845C63.5771 17.8019 63.3558 18.7703 62.9131 19.4897C62.498 20.2091 61.9723 20.8455 61.3359 21.3989C60.6995 21.9523 60.0078 22.4919 59.2607 23.0176C58.5413 23.5433 57.8634 24.2074 57.2271 25.0098C57.144 25.0928 56.8674 25.411 56.397 25.9644C55.9543 26.4901 55.4424 27.1265 54.8613 27.8735C54.2803 28.5929 53.6854 29.3538 53.0767 30.1562C52.4956 30.931 51.9976 31.6089 51.5825 32.1899C51.8592 32.8263 52.2051 33.4489 52.6201 34.0576C53.0628 34.6387 53.464 35.2336 53.8237 35.8423C55.4562 38.6092 57.0334 41.4315 58.5552 44.3091C60.1047 47.159 61.8063 50.1473 63.6602 53.2739C64.1029 54.0487 64.6147 54.9202 65.1958 55.8887C65.7769 56.8571 66.3717 57.8809 66.9805 58.96C67.5892 60.0391 68.1841 61.132 68.7651 62.2388C69.3462 63.3455 69.8581 64.4108 70.3008 65.4346C70.7712 66.4307 71.1447 67.3576 71.4214 68.2153C71.6981 69.0731 71.8364 69.7925 71.8364 70.3735C71.8364 71.0099 71.7673 71.6187 71.6289 72.1997C71.4906 72.7808 71.2554 73.2788 70.9233 73.6938C70.5913 74.1366 70.1486 74.4824 69.5952 74.7314C69.0418 74.9805 68.3501 75.105 67.52 75.105C67.022 75.105 66.5239 74.9113 66.0259 74.5239C65.5278 74.1642 65.0575 73.68 64.6147 73.0713C64.172 72.4902 63.7432 71.8262 63.3281 71.0791C62.9408 70.3597 62.5811 69.6403 62.249 68.9209C61.9447 68.2015 61.668 67.5513 61.4189 66.9702C61.1699 66.3615 60.9762 65.8773 60.8379 65.5176C60.6995 65.2132 60.409 64.5907 59.9663 63.6499C59.5513 62.7091 59.0256 61.5885 58.3892 60.2881C57.7528 58.96 57.0334 57.4935 56.231 55.8887C55.4285 54.2839 54.5985 52.6652 53.7407 51.0327C52.9106 49.4002 52.0806 47.8092 51.2505 46.2598C50.4204 44.7103 49.6457 43.313 48.9263 42.0679C48.2069 40.8228 47.5705 39.799 47.0171 38.9966C46.4637 38.1665 46.0487 37.6823 45.772 37.5439C43.8075 39.1211 41.9536 40.9749 40.2104 43.1055C38.495 45.2083 36.9316 47.2835 35.5205 49.3311C35.4652 49.9398 35.4237 50.4655 35.396 50.9082C35.396 51.3232 35.396 51.8213 35.396 52.4023C35.396 53.7305 35.4513 55.0724 35.562 56.4282C35.7004 57.784 35.8664 59.1398 36.0601 60.4956C36.1707 61.6854 36.2676 62.9028 36.3506 64.1479C36.4336 65.3654 36.5028 66.6243 36.5581 67.9248C36.5581 68.2568 36.4336 68.6165 36.1846 69.0039C35.9355 69.3913 35.6035 69.7371 35.1885 70.0415C34.8011 70.3735 34.3722 70.6364 33.9019 70.8301C33.4315 71.0514 32.9749 71.1621 32.5322 71.1621C31.9512 71.1621 31.384 71.0791 30.8306 70.9131C30.3049 70.7471 29.8206 70.5119 29.3779 70.2075C28.9352 69.9308 28.5755 69.5988 28.2988 69.2114C28.0221 68.7964 27.87 68.3675 27.8423 67.9248Z" fill="white"/>
</g>
<defs>
<linearGradient id="paint0_linear_262_351" x1="2.11238e-06" y1="1.5" x2="123.5" y2="123" gradientUnits="userSpaceOnUse">
<stop offset="0.0162409" stop-color="#1C1C1C"/>
<stop offset="1" stop-color="#524A4A"/>
</linearGradient>
<linearGradient id="paint1_linear_262_351" x1="14.6125" y1="13.5669" x2="129.807" y2="95.282" gradientUnits="userSpaceOnUse">
<stop stop-color="#39594B"/>
<stop offset="1" stop-color="#F54768"/>
</linearGradient>
<linearGradient id="paint2_linear_262_351" x1="-20.0269" y1="65.0114" x2="98.3796" y2="-11.7525" gradientUnits="userSpaceOnUse">
<stop stop-color="#F54768"/>
<stop offset="1" stop-color="#3E7856"/>
</linearGradient>
<linearGradient id="paint3_linear_262_351" x1="-16.0027" y1="74.8" x2="123.992" y2="82.247" gradientUnits="userSpaceOnUse">
<stop stop-color="#33363F"/>
<stop offset="1" stop-color="#F54768"/>
</linearGradient>
</defs>
</svg>
